<svg width="50" height="42" viewBox="0 0 50 42" fill="none" xmlns="http://www.w3.org/2000/svg">
<g id="Group 7 1">
<path id="Vector" d="M8.1518 21.105C7.19018 21.105 6.32049 20.8879 5.54271 20.454C4.76493 20.0059 4.14271 19.369 3.67605 18.543C3.22352 17.703 2.99726 16.681 2.99726 15.477C2.99726 14.273 3.22352 13.258 3.67605 12.432C4.12856 11.592 4.74371 10.955 5.5215 10.521C6.29927 10.087 7.17605 9.87 8.1518 9.87C9.21241 9.87 10.1599 10.108 10.9942 10.584C11.8427 11.046 12.5074 11.704 12.9882 12.558C13.469 13.398 13.7094 14.371 13.7094 15.477C13.7094 16.597 13.469 17.577 12.9882 18.417C12.5074 19.257 11.8427 19.915 10.9942 20.391C10.1599 20.867 9.21241 21.105 8.1518 21.105ZM2.40332 25.074V9.975H3.84574V13.293L3.69726 15.498L3.90938 17.724V25.074H2.40332ZM8.04574 19.782C8.83765 19.782 9.54473 19.6069 10.167 19.257C10.7892 18.8929 11.2841 18.389 11.6518 17.745C12.0195 17.087 12.2033 16.3309 12.2033 15.477C12.2033 14.623 12.0195 13.874 11.6518 13.23C11.2841 12.586 10.7892 12.082 10.167 11.718C9.54473 11.354 8.83765 11.172 8.04574 11.172C7.25382 11.172 6.53968 11.354 5.90332 11.718C5.28109 12.082 4.78614 12.586 4.41847 13.23C4.06493 13.874 3.88817 14.623 3.88817 15.477C3.88817 16.3309 4.06493 17.087 4.41847 17.745C4.78614 18.389 5.28109 18.8929 5.90332 19.257C6.53968 19.6069 7.25382 19.782 8.04574 19.782ZM16.7795 21V9.975H18.2856V21H16.7795ZM17.5432 7.539C17.232 7.539 16.9704 7.434 16.7583 7.224C16.5462 7.014 16.4401 6.762 16.4401 6.468C16.4401 6.174 16.5462 5.929 16.7583 5.733C16.9704 5.523 17.232 5.418 17.5432 5.418C17.8542 5.418 18.1159 5.51599 18.328 5.712C18.5401 5.908 18.6462 6.153 18.6462 6.447C18.6462 6.75499 18.5401 7.014 18.328 7.224C18.13 7.434 17.8683 7.539 17.5432 7.539ZM28.1609 9.87C29.066 9.87 29.8579 10.045 30.5367 10.395C31.2297 10.731 31.767 11.249 32.1488 11.949C32.5448 12.649 32.7427 13.531 32.7427 14.595V21H31.2367V14.742C31.2367 13.58 30.9397 12.705 30.3457 12.117C29.766 11.515 28.9457 11.214 27.8851 11.214C27.0933 11.214 26.4003 11.375 25.8064 11.697C25.2267 12.005 24.7741 12.46 24.4488 13.062C24.1377 13.65 23.9821 14.364 23.9821 15.204V21H22.476V9.975H23.9185V12.999L23.6851 12.432C24.0388 11.634 24.6044 11.011 25.3821 10.563C26.16 10.101 27.0862 9.87 28.1609 9.87ZM41.5412 21.105C40.3815 21.105 39.3633 20.867 38.4867 20.391C37.6098 19.9009 36.9239 19.236 36.4291 18.396C35.9341 17.5421 35.6867 16.569 35.6867 15.477C35.6867 14.385 35.92 13.419 36.3867 12.579C36.8674 11.739 37.5179 11.081 38.3382 10.605C39.1724 10.115 40.1057 9.87 41.1382 9.87C42.1845 9.87 43.1109 10.108 43.917 10.584C44.7371 11.046 45.3806 11.704 45.8473 12.558C46.3139 13.398 46.5473 14.371 46.5473 15.477C46.5473 15.547 46.5401 15.624 46.526 15.708C46.526 15.778 46.526 15.855 46.526 15.939H36.8321V14.826H45.72L45.126 15.267C45.126 14.469 44.9492 13.762 44.5957 13.146C44.2564 12.516 43.7897 12.026 43.1957 11.676C42.6018 11.326 41.9159 11.151 41.1382 11.151C40.3745 11.151 39.6886 11.326 39.0806 11.676C38.4724 12.026 37.9988 12.516 37.6594 13.146C37.32 13.776 37.1503 14.497 37.1503 15.309V15.54C37.1503 16.38 37.3341 17.122 37.7018 17.766C38.0836 18.396 38.6068 18.8929 39.2715 19.257C39.9503 19.6069 40.7209 19.782 41.5836 19.782C42.2624 19.782 42.8917 19.663 43.4715 19.425C44.0654 19.1869 44.5745 18.8231 44.9988 18.333L45.8473 19.299C45.3523 19.887 44.73 20.335 43.9806 20.643C43.2451 20.9509 42.4321 21.105 41.5412 21.105Z" fill="white"/>
<path id="Vector_2" d="M5.62096 37.605C4.57449 37.605 3.76843 37.3249 3.20278 36.765C2.63712 36.205 2.35429 35.4139 2.35429 34.392V24.039H3.86035V34.308C3.86035 34.9519 4.02297 35.449 4.34823 35.799C4.68762 36.1489 5.16843 36.324 5.79065 36.324C6.45531 36.324 7.00682 36.135 7.4452 35.757L7.9755 36.828C7.67853 37.0939 7.31793 37.29 6.89369 37.416C6.48358 37.542 6.05934 37.605 5.62096 37.605ZM0.360352 27.714V26.475H7.25429V27.714H0.360352ZM14.863 37.605C13.7882 37.605 12.8195 37.3669 11.9569 36.891C11.1084 36.4009 10.4367 35.736 9.94176 34.896C9.44682 34.042 9.19934 33.069 9.19934 31.977C9.19934 30.8711 9.44682 29.898 9.94176 29.058C10.4367 28.218 11.1084 27.5599 11.9569 27.084C12.8054 26.608 13.7741 26.37 14.863 26.37C15.966 26.37 16.9417 26.608 17.7902 27.084C18.6529 27.5599 19.3246 28.218 19.8054 29.058C20.3004 29.898 20.5478 30.8711 20.5478 31.977C20.5478 33.069 20.3004 34.042 19.8054 34.896C19.3246 35.736 18.6529 36.4009 17.7902 36.891C16.9276 37.3669 15.9519 37.605 14.863 37.605ZM14.863 36.282C15.669 36.282 16.3832 36.1069 17.0054 35.757C17.6276 35.3929 18.1155 34.8889 18.469 34.245C18.8367 33.5869 19.0205 32.8309 19.0205 31.977C19.0205 31.109 18.8367 30.3529 18.469 29.709C18.1155 29.065 17.6276 28.5679 17.0054 28.218C16.3832 27.8539 15.6761 27.672 14.8842 27.672C14.0923 27.672 13.3852 27.8539 12.763 28.218C12.1408 28.5679 11.6458 29.065 11.2781 29.709C10.9105 30.3529 10.7266 31.109 10.7266 31.977C10.7266 32.8309 10.9105 33.5869 11.2781 34.245C11.6458 34.8889 12.1408 35.3929 12.763 35.757C13.3852 36.1069 14.0852 36.282 14.863 36.282ZM28.2257 37.605C27.2781 37.605 26.4508 37.4299 25.7438 37.08C25.0367 36.73 24.4852 36.205 24.0893 35.505C23.7075 34.8049 23.5166 33.93 23.5166 32.88V26.475H25.0226V32.712C25.0226 33.888 25.3125 34.7771 25.8923 35.379C26.4863 35.967 27.3135 36.261 28.3741 36.261C29.1519 36.261 29.8235 36.1069 30.3893 35.799C30.969 35.4769 31.4075 35.0149 31.7044 34.413C32.0155 33.811 32.1711 33.09 32.1711 32.25V26.475H33.6772V37.5H32.2347V34.476L32.4681 35.022C32.1144 35.8339 31.5629 36.471 30.8135 36.933C30.0781 37.381 29.2155 37.605 28.2257 37.605ZM37.8744 37.5V26.475H39.3169V29.478L39.1684 28.953C39.4796 28.113 40.0028 27.4759 40.7381 27.042C41.4735 26.5939 42.3857 26.37 43.4744 26.37V27.819C43.4179 27.819 43.3614 27.819 43.3047 27.819C43.2482 27.805 43.1917 27.798 43.135 27.798C41.9614 27.798 41.0422 28.155 40.3775 28.869C39.7129 29.569 39.3805 30.57 39.3805 31.872V37.5H37.8744Z" fill="white"/>
<path id="Vector_3" d="M46.5373 37.605C46.2261 37.605 45.9575 37.493 45.7313 37.269C45.5191 37.0451 45.4131 36.772 45.4131 36.45C45.4131 36.114 45.5191 35.841 45.7313 35.631C45.9575 35.421 46.2261 35.316 46.5373 35.316C46.8484 35.316 47.1101 35.421 47.3222 35.631C47.5484 35.841 47.6616 36.114 47.6616 36.45C47.6616 36.772 47.5484 37.0451 47.3222 37.269C47.1101 37.493 46.8484 37.605 46.5373 37.605Z" fill="#18BA51"/>
</g>
</svg>
